PathFileType	4	(X/Y/Z)	C:/Users/opensim2020/Desktop/walking_exp_matlab/subject03_walking15_straight_04.trc	
DataRate	CameraRate	NumFrames	NumMarkers	Units	OrigDataRate	OrigDataStartFrame	OrigNumFrames	
100.00	100.00	7	47	mm	100.00	2253	182	
Frame#	Time	LFHD			RFHD			LBHD			RBHD			C7			T10			CLAV			STRN			RBAK			LSHO			LUPA			LELB			LFRM			LWRA			LWRB			LFIN			RSHO			RUPA			RELB			RFRM			RWRA			RWRB			RFIN			LASI			RASI			LPSI			RPSI			LTHI			LKNE			LTIB			LANK			LHEE			LTOE			RTHI			RKNE			RTIB			RANK			RHEE			RTOE			*39			*40			*41			*42			*43			*44			*45			*46			
		X1	Y1	Z1	X2	Y2	Z2	X3	Y3	Z3	X4	Y4	Z4	X5	Y5	Z5	X6	Y6	Z6	X7	Y7	Z7	X8	Y8	Z8	X9	Y9	Z9	X10	Y10	Z10	X11	Y11	Z11	X12	Y12	Z12	X13	Y13	Z13	X14	Y14	Z14	X15	Y15	Z15	X16	Y16	Z16	X17	Y17	Z17	X18	Y18	Z18	X19	Y19	Z19	X20	Y20	Z20	X21	Y21	Z21	X22	Y22	Z22	X23	Y23	Z23	X24	Y24	Z24	X25	Y25	Z25	X26	Y26	Z26	X27	Y27	Z27	X28	Y28	Z28	X29	Y29	Z29	X30	Y30	Z30	X31	Y31	Z31	X32	Y32	Z32	X33	Y33	Z33	X34	Y34	Z34	X35	Y35	Z35	X36	Y36	Z36	X37	Y37	Z37	X38	Y38	Z38	X39	Y39	Z39	X40	Y40	Z40	X41	Y41	Z41	X42	Y42	Z42	X43	Y43	Z43	X44	Y44	Z44	X45	Y45	Z45	X46	Y46	Z46	X47	Y47	Z47	

92	0.910	-915.70575	-64.84527	1617.83411	-1047.71057	-55.58802	1628.53687	-913.21393	64.78708	1580.32605	-1043.18848	69.03018	1589.93250	-973.67999	101.30452	1415.73169	-978.89520	125.66563	1102.91711	-985.41260	-22.20938	1345.10413	-982.88623	-73.29620	1182.02966	-1065.32507	153.90767	1237.89270	-826.35114	14.07126	1379.66064	-754.12567	-13.16768	1186.78052	-745.17255	-46.23452	1067.55176	-757.31555	-104.78317	951.91071	-797.85913	-148.82228	844.30792	-743.38367	-135.70259	842.47675	-759.51489	-174.76770	769.99304	-1140.99695	39.02583	1367.88306	-1209.92188	49.42488	1143.97717	-1221.78003	40.52067	1031.10803	-1225.29871	37.46224	894.29303	-1194.57471	13.51461	795.46844	-1234.93774	49.46261	794.47144	-1228.31641	31.98961	722.17535	-864.51245	-36.66158	943.37335	-1100.58057	-37.92329	942.00385	-917.10956	123.93073	967.38800	-1065.02612	122.22305	966.61884	-829.38025	42.32581	642.92151	-868.78040	56.81258	467.21344	-870.24976	131.88176	282.51044	-914.34174	170.34131	74.98645	-953.05396	211.06207	43.87627	-931.30444	19.10904	29.17543	-1146.51917	-61.97588	652.27637	-1117.62024	-138.91191	490.09906	-1120.32202	-72.05326	307.54373	-1075.74719	-4.19352	102.59438	-1022.74194	45.80540	80.05640	-1058.69739	-128.39307	37.70107																								 
93	0.920	-916.16327	-76.53988	1616.86987	-1048.14282	-67.22579	1627.31494	-913.53003	53.00490	1579.35730	-1043.61987	57.39820	1588.71277	-973.75073	89.57194	1414.67590	-979.22449	114.21371	1101.79419	-985.45367	-34.00583	1344.03271	-982.50354	-84.95982	1180.93579	-1064.94348	142.27058	1236.56458	-826.57373	2.29541	1378.91003	-754.12939	-27.94695	1187.13098	-745.38062	-63.56723	1068.65540	-758.56775	-125.69044	955.15344	-800.57019	-173.48259	849.79779	-746.15668	-160.60107	846.70435	-763.50049	-202.16269	775.82336	-1141.08655	27.37586	1366.44275	-1210.01599	40.72067	1142.82007	-1222.06140	33.32510	1029.84619	-1225.68311	32.33354	892.97479	-1195.13025	9.71294	793.73889	-1235.33936	45.92398	793.34656	-1228.95337	29.63563	720.51141	-863.84613	-47.53075	942.33020	-1099.98975	-50.24095	940.97675	-917.62073	112.77374	966.23260	-1065.49866	110.18848	965.33545	-829.98938	35.17733	642.51471	-869.08374	52.17875	466.78552	-870.81519	129.44421	283.11935	-915.01263	169.84067	75.73165	-953.71106	210.75620	44.98026	-931.14148	18.86497	29.18313	-1146.54773	-75.32885	651.80225	-1117.04492	-152.77750	490.13251	-1119.48926	-95.53704	303.90991	-1074.52026	-41.74517	94.73222	-1021.05811	6.22144	69.05509	-1058.14490	-170.60680	38.33142																								 
94	0.930	-916.64813	-88.27937	1615.75940	-1048.69458	-78.92346	1625.91174	-913.86224	41.27888	1578.20520	-1044.37366	45.66448	1587.36719	-974.14136	77.85101	1413.37585	-979.62341	102.66899	1100.47485	-985.48389	-45.82371	1342.69641	-982.12305	-96.65707	1179.58655	-1064.75146	130.47879	1235.10876	-826.86383	-9.60392	1377.91931	-754.27332	-42.58555	1187.37915	-745.61566	-80.60467	1069.50574	-759.89630	-146.25386	958.34387	-803.29871	-197.72348	855.41925	-748.95996	-185.05850	851.10162	-767.45416	-229.05008	781.91711	-1141.19397	15.48049	1364.92798	-1210.25964	31.83389	1141.55127	-1222.52686	26.01001	1028.56067	-1226.13196	26.94068	891.64648	-1195.60742	5.29449	792.23169	-1235.81030	41.97470	792.25922	-1229.44812	26.80520	719.06232	-863.29333	-58.17945	941.06677	-1099.42700	-62.68018	939.62549	-918.28516	101.70224	964.87555	-1066.06592	98.10210	963.83142	-830.25757	27.69760	641.90674	-869.44659	46.99994	466.23666	-871.37549	126.55920	283.62085	-915.38538	169.56787	76.73580	-954.52313	210.73254	46.20532	-931.32068	18.65344	28.98132	-1146.45776	-88.94518	651.48535	-1116.48291	-165.91586	489.49942	-1118.88074	-118.26333	300.65466	-1073.53149	-79.17486	88.18578	-1019.42596	-33.61599	59.67426	-1058.27808	-211.58873	39.34777																								 
95	0.940	-917.06769	-100.03899	1614.53796	-1049.12817	-90.60653	1624.38916	-914.15424	29.50028	1576.85339	-1044.66321	33.96596	1585.70996	-974.42291	66.06123	1411.89771	-980.14136	90.87324	1099.00134	-985.48395	-57.74378	1341.28186	-981.70306	-108.33222	1178.08704	-1064.85974	118.68682	1233.57227	-827.17102	-21.31738	1376.63843	-754.36603	-57.06378	1187.33264	-745.85596	-97.31568	1070.20313	-761.34808	-166.51944	961.40588	-806.01599	-221.48610	861.12109	-751.74695	-208.97990	855.61487	-771.30054	-255.46622	788.25549	-1141.30530	3.49806	1363.27991	-1210.44849	22.66904	1140.38428	-1223.05640	18.45574	1027.23267	-1226.65576	21.18903	890.32373	-1196.35132	0.67603	790.59479	-1236.25891	37.58760	791.04919	-1229.53210	23.69329	717.56537	-862.86060	-69.17283	939.79242	-1098.88940	-75.21082	938.09814	-919.04016	90.60430	963.35706	-1066.71497	86.02818	962.11572	-830.47272	19.72109	641.18677	-869.85791	41.40248	465.66656	-871.87946	123.47807	284.08038	-916.02643	168.94678	77.63141	-955.13049	210.56702	47.67184	-931.33551	18.54275	28.91622	-1145.98938	-101.32655	650.25903	-1115.97949	-178.44673	488.37549	-1118.43896	-140.33501	297.70935	-1072.73779	-116.38078	82.75804	-1017.98724	-73.29444	51.95231	-1058.72644	-251.67459	40.90417																								 
96	0.950	-917.55560	-111.77953	1613.23010	-1049.58704	-102.28972	1622.72314	-914.51599	17.66964	1575.36768	-1045.00403	22.18443	1583.90845	-974.38617	54.17015	1410.35181	-980.67133	79.06676	1097.37781	-985.52490	-69.73296	1339.68713	-981.33826	-120.23824	1176.46704	-1065.06030	106.72695	1231.89453	-827.45996	-32.94036	1375.17188	-754.50861	-71.26461	1187.05225	-746.12775	-113.74099	1070.79297	-762.76495	-186.34845	964.51239	-808.73254	-244.68272	866.89355	-754.56573	-232.36426	860.13080	-775.05756	-281.32236	794.79694	-1141.47888	-8.83313	1361.58289	-1210.78284	13.23287	1139.15234	-1223.65820	10.65131	1025.94153	-1227.26355	15.12008	889.05042	-1196.87439	-4.08056	788.68243	-1236.74536	32.95076	789.80743	-1229.93457	20.13636	716.15027	-862.07587	-79.64961	938.10205	-1098.39050	-87.80737	936.29303	-919.77527	79.24759	961.51239	-1067.41394	73.82658	960.14764	-830.68256	11.36894	640.40161	-870.09576	35.56315	465.11984	-872.27313	120.27929	284.65298	-916.58466	168.26202	78.59358	-955.81342	209.78537	49.02767	-931.40656	18.42754	28.89473	-1145.70996	-113.14545	648.35278	-1115.31934	-190.25842	486.67181	-1118.07898	-161.88765	294.93082	-1072.30957	-152.93768	78.43198	-1016.77716	-112.33347	45.93540	-1059.41077	-290.58310	43.19118																								 
97	0.960	-917.99207	-123.60066	1611.84680	-1050.08960	-114.06042	1621.04126	-914.90283	5.78346	1573.88416	-1045.40332	10.39073	1582.03931	-974.85773	42.33742	1408.64514	-981.41925	67.20430	1095.73059	-985.52362	-81.79003	1337.99072	-980.98236	-132.06580	1174.70020	-1065.53748	94.67458	1230.20471	-827.82599	-44.42198	1373.44800	-754.73529	-85.30386	1186.55981	-746.46637	-129.96629	1071.16174	-764.20020	-205.65318	967.51031	-811.45502	-267.21472	872.59064	-757.40155	-255.28625	864.71893	-778.73755	-306.61853	801.56091	-1141.67102	-21.31686	1359.84094	-1211.29700	3.54185	1137.80762	-1224.30005	2.45005	1024.62134	-1228.00610	8.69432	887.75989	-1197.74609	-9.56353	787.09668	-1237.33972	27.93394	788.91943	-1230.36511	16.16722	714.80829	-861.95813	-91.05547	936.67371	-1097.90796	-100.54036	934.23810	-920.56458	67.88168	959.67102	-1068.24377	61.52778	957.98181	-830.76007	2.55219	639.61786	-870.21130	29.51338	464.57840	-872.71973	116.72919	285.23611	-916.86426	167.75632	79.97699	-956.21112	209.45676	50.67358	-931.39539	18.32877	28.87559	-1145.78979	-124.26081	645.85724	-1114.45752	-201.47336	484.44473	-1117.59302	-182.83185	292.45398	-1071.95813	-188.20177	75.66473	-1015.75317	-150.07906	41.64154	-1060.16199	-328.11594	46.57458																								 
98	0.970	-918.44604	-135.41664	1610.45300	-1050.57654	-125.86598	1619.25110	-915.12708	-6.13303	1572.25671	-1045.48584	-1.46053	1579.99658	-975.20050	30.42681	1406.88782	-982.28131	55.19135	1094.02454	-985.59637	-93.86172	1336.26563	-980.77148	-144.04613	1172.90796	-1066.21521	82.52516	1228.48755	-828.11969	-55.77707	1371.52930	-755.02209	-98.93597	1185.76367	-746.96631	-145.80467	1071.29346	-765.63562	-224.60074	970.35565	-814.30853	-289.25742	878.32129	-760.22229	-277.67422	869.30621	-782.35712	-331.25769	808.44659	-1141.97119	-33.87071	1358.17346	-1211.55176	-6.80184	1136.60083	-1224.94067	-6.19736	1023.35956	-1228.80933	1.68665	886.60596	-1198.91919	-15.52349	785.35248	-1237.90063	22.32492	787.80798	-1230.77368	11.73554	713.51013	-861.26843	-102.03448	934.89111	-1097.54822	-113.34490	932.13593	-921.43610	56.25875	957.72113	-1069.04175	49.10251	955.72791	-830.76367	-6.60994	638.86243	-870.26288	23.09821	464.13992	-872.82043	112.97430	285.97992	-917.08801	166.99013	81.21978	-956.30835	209.10420	52.54675	-931.46973	18.32073	28.84019	-1146.24780	-134.59799	642.92999	-1113.47021	-212.28448	481.86047	-1116.96606	-202.95999	290.47244	-1071.79175	-221.93996	73.87666	-1015.01477	-186.02217	38.89842	-1060.87976	-363.50345	50.65190																								 
